<svg width="150" height="150" xmlns="http://www.w3.org/2000/svg" version="1.1">
 <g>
  <title>Layer 1</title>
  <path d="m28,53c5.05011,-0.63126 7.84105,0.66208 11.92969,3.35156c2.29024,1.82355 4.11982,3.84348 6.07031,6.02344c2.56971,2.86148 2.56971,2.86148 6.10547,3.80859c1.97297,-0.35165 3.93448,-0.76588 5.89453,-1.18359c4.62343,1.78632 6.47562,4.8528 9,9c0.33,0.33 0.66,0.66 1,1c0.08776,2.14559 0.10695,4.29404 0.09766,6.44141c-0.00323,1.30517 -0.00645,2.61035 -0.00977,3.95507c-0.00836,1.38868 -0.01682,2.77735 -0.02539,4.16602c-0.00501,1.39258 -0.00958,2.78515 -0.01367,4.17773c-0.01184,3.41994 -0.02977,6.83986 -0.04883,10.25977c-4.29,0 -8.58,0 -13,0c-1.39044,-4.17131 -2.29914,-7.58857 -3.0625,-11.8125c-1.46763,-6.05773 -4.12384,-9.01056 -8.66797,-13.12891c-7.20002,-6.53082 -11.38,-15.28989 -15.26953,-24.05859c0,-0.66 0,-1.32 0,-2z" fill="#000000" id="svg_3"/>
  <path d="m117,56c-5.16121,10.85027 -10.67366,21.56101 -18.75391,30.53906c-4.34416,5.09316 -5.12444,11.07618 -6.24609,17.46094c-4.29,0 -8.58,0 -13,0c-0.13817,-4.18341 -0.25741,-8.35885 -0.32959,-12.54272c-0.03009,-1.42118 -0.07097,-2.84216 -0.12305,-4.2627c-0.42092,-11.78164 -0.42092,-11.78164 1.70288,-15.2168c3.08259,-2.63409 6.80399,-4.18863 10.74976,-4.97778c0.99,0.66 1.98,1.32 3,2c0.83531,-1.03061 0.83531,-1.03061 1.6875,-2.08203c6.56529,-7.75192 10.88984,-11.12436 21.3125,-10.91797z" fill="#000000" id="svg_4"/>
 </g>

</svg>